<svg xmlns="http://www.w3.org/2000/svg" viewBox="40 20 280 660" width="32" height="32">
  <rect width="320" height="700" rx="64" fill="#000000"/>
  <path fill="#ffffff" d="m 69.734727,636.18159 c -4.735986,-0.17253 -5.050722,-0.22499 -6.29411,-1.04902 -1.464439,-0.97053 -2.634939,-2.41801 -3.309474,-4.09259 C 59.744099,630.07911 59.68,588.40532 59.68,337.73224 V 45.544498 l 1.170094,-1.762285 c 1.258386,-1.895262 3.581608,-3.660169 5.195905,-3.947231 0.546701,-0.09722 15.960219,-0.135858 34.252261,-0.08587 l 33.25826,0.09089 0.41179,2.438041 c 0.90171,5.338635 2.85448,9.085061 6.55634,12.578488 2.93255,2.767437 6.3967,4.61626 10.83535,5.782861 l 3.04,0.798995 42.72,-0.0014 c 41.80187,-0.0014 42.77846,-0.01538 45.44,-0.650193 1.496,-0.356817 4.07337,-1.305416 5.72749,-2.107998 2.5232,-1.224255 3.45099,-1.90526 5.76155,-4.229 4.20585,-4.229835 6.14147,-7.958157 6.63561,-12.78125 l 0.2137,-2.085778 33.84802,0.174737 33.84803,0.174737 1.73703,0.795239 c 1.85941,0.851266 2.99584,2.087766 4.04544,4.401656 l 0.64907,1.430899 0.009,291.359994 c 0.008,275.66461 -0.0213,291.44338 -0.54626,292.90801 -0.73177,2.04156 -2.29596,3.82136 -4.16915,4.74384 l -1.51914,0.74814 -127.04,0.0216 c -69.872,0.0119 -129.283373,-0.0601 -132.025273,-0.16 z M 219.73758,581.44982 c 6.28789,-1.32738 10.96832,-3.79311 15.16374,-7.98853 5.25649,-5.25649 7.95384,-11.39659 9.77939,-22.26131 0.73449,-4.37128 0.73035,-14.083 -0.008,-18.88 -1.84637,-11.99497 -6.63255,-21.04325 -13.59417,-25.6998 -5.06882,-3.39048 -11.10052,-4.71966 -17.95743,-3.95721 -7.53142,0.83745 -13.09179,3.939 -17.44587,9.7312 -1.67022,2.22189 -3.94424,6.74633 -4.93199,9.81281 -1.70753,5.30105 -3.07899,13.9637 -3.56557,22.52136 -0.69806,12.27716 -3.18119,17.04594 -9.6208,18.47644 -2.53377,0.56285 -4.90752,0.28546 -7.33577,-0.85724 -3.51375,-1.65352 -5.82429,-4.52049 -7.48668,-9.28963 -1.77335,-5.08747 -1.93838,-13.48447 -0.3685,-18.75019 2.02853,-6.80413 4.9741,-10.20714 9.91111,-11.45029 L 173.76,522.484 v -8.64796 -8.64796 l -2.28478,0.21234 c -3.64996,0.33923 -8.9624,2.41145 -12.74422,4.97112 -2.03896,1.38004 -5.30906,4.67639 -6.7881,6.84261 -4.47794,6.5584 -6.61462,15.77937 -6.24388,26.94583 0.50849,15.31554 5.23858,26.29866 13.77109,31.97599 5.3183,3.53867 9.91042,4.80736 16.52989,4.56678 5.10389,-0.18549 7.0843,-0.65894 11.2,-2.67756 2.52164,-1.23679 3.47651,-1.93542 5.6,-4.09725 6.46707,-6.58385 9.41082,-15.62787 10.56017,-32.44374 0.8681,-12.70119 3.18453,-18.24633 8.70652,-20.84197 1.69244,-0.79554 4.99097,-0.8576 7.47523,-0.14064 5.6095,1.61891 8.82509,6.79968 10.24417,16.50477 1.06527,7.28548 -1.03896,17.34542 -4.59841,21.98408 -2.23836,2.91702 -6.91407,5.48954 -9.97759,5.48954 H 214.08 v 8.8 8.8 l 1.36,-0.005 c 0.748,-0.003 2.68191,-0.28407 4.29758,-0.62514 z M 196.64,485.32544 l 47.68,-15.4635 -0.11618,-6.53098 c -0.0639,-3.59204 -0.17685,-6.63325 -0.25101,-6.75824 -0.29588,-0.4987 -35.81551,-11.50793 -56.5902,-17.54001 -4.92657,-1.43046 -8.99767,-2.64112 -9.0469,-2.69035 -0.0492,-0.0492 2.2536,-0.77661 5.11739,-1.6164 27.48978,-8.06122 59.05345,-17.69635 60.53546,-18.47907 0.57165,-0.3019 0.59601,-0.61519 0.40161,-5.16415 -0.27582,-6.45432 -0.50476,-8.16726 -1.13634,-8.50196 -0.49901,-0.26446 -37.0101,-12.14819 -76.03383,-24.7477 l -19.2,-6.19907 -0.20214,0.82299 c -0.26732,1.08838 -0.33421,15.02123 -0.0782,16.30102 0.19691,0.98459 0.28493,1.02595 6.53428,3.07078 12.41136,4.06108 20.88235,6.57227 39.98611,11.8537 10.648,2.94376 19.53625,5.44707 19.75166,5.56293 0.21541,0.11586 -7.12859,2.33496 -16.32,4.93132 -34.68478,9.79767 -49.23436,14.13919 -49.60632,14.80227 -0.4414,0.78686 -0.71837,12.70719 -0.32954,14.18272 l 0.28506,1.08176 16.94957,4.86999 c 9.32226,2.67849 24.25499,6.93942 33.18383,9.46873 8.92884,2.52931 16.05684,4.69542 15.84,4.81359 -0.3631,0.19786 -19.494,5.66197 -33.51426,9.57223 -7.17355,2.00071 -15.9924,4.67412 -25.48267,7.72501 l -7.08267,2.27691 -0.19733,1.43967 c -0.25673,1.87304 -0.24946,13.95231 0.009,15.51822 0.153,0.92575 0.32035,1.16737 0.71648,1.03448 0.28427,-0.0954 21.97285,-7.13197 48.19685,-15.63689 z m -71.11672,-121.2892 c 4.51694,-1.06291 7.28882,-5.01485 7.26627,-10.35969 -0.0278,-6.58504 -3.4665,-10.28944 -10.06965,-10.84761 -1.94729,-0.16461 -2.46354,-0.0907 -3.69188,0.52843 -2.51296,1.26665 -4.04729,2.75947 -5.16066,5.02104 -0.94199,1.91345 -1.04252,2.39159 -1.02435,4.87163 0.0426,5.81627 3.3376,10.19503 8.20678,10.90617 2.4282,0.35464 2.46023,0.35378 4.47349,-0.11997 z m 118.24186,-10.51625 -0.0851,-8.72 -48.56,-0.081 -48.56,-0.081 v 8.80103 8.80103 h 48.64514 48.64515 z M 272,316.95999 v -8.8 h -10.02782 c -5.51529,0 -14.57262,-0.0949 -20.12738,-0.211 l -10.09957,-0.211 2.72546,-2.57988 c 4.02554,-3.81051 6.9806,-8.46721 8.34992,-13.15812 4.77325,-16.3519 2.54331,-32.97663 -6.13797,-45.76 -2.36777,-3.48659 -7.80438,-9.00053 -11.08264,-11.24027 -6.08061,-4.15435 -14.82188,-7.38032 -22.88,-8.44387 -4.00554,-0.52868 -11.81719,-0.45257 -15.84,0.15433 -13.55577,2.04506 -24.31643,8.11478 -31.50307,17.76981 -4.35709,5.85363 -6.78234,11.39706 -8.53999,19.52 -0.99647,4.60515 -1.08084,15.71299 -0.15678,20.64 1.8886,10.06989 5.53056,17.1222 11.15466,21.6 l 1.80864,1.44 -2.14173,0.20025 c -1.17795,0.11014 -3.90573,0.21814 -6.06173,0.24 l -3.92,0.0397 v 8.8 8.8 H 209.76 272 Z m -81.6226,-9.13006 c -2.81031,-0.32873 -7.76488,-1.66973 -10.73044,-2.9043 -6.41974,-2.67254 -12.43169,-8.69611 -15.55552,-15.58556 -3.96773,-8.75064 -3.60307,-20.52043 0.90423,-29.1848 3.20248,-6.15614 9.44868,-11.42439 16.66961,-14.0597 2.99916,-1.09456 10.46812,-2.57558 12.98894,-2.57558 10.23884,0 22.07304,4.83167 27.30256,11.14709 3.56374,4.30374 5.77526,8.5466 7.03297,13.49291 0.83659,3.29014 0.84888,10.56141 0.0243,14.39497 -1.58446,7.36665 -5.79647,14.28402 -11.25409,18.48255 -2.85146,2.19363 -8.5349,4.98916 -11.84,5.82378 -4.71768,1.19134 -10.53784,1.55406 -15.5426,0.96864 z M 203.68,217.08447 c 8.45888,-1.24512 14.67751,-3.60547 21.44,-8.13779 7.5397,-5.05321 14.79386,-15.15746 18.02487,-25.10669 1.71526,-5.28176 2.13795,-8.51958 2.10965,-16.16 -0.0216,-5.82482 -0.13422,-7.38941 -0.73451,-10.20147 -3.49368,-16.36621 -12.0247,-27.53757 -26.28001,-34.41362 l -3.68,-1.77505 -0.22156,1.19507 c -0.27842,1.50179 -0.3204,13.1131 -0.0554,15.31879 0.1766,1.46982 0.32017,1.71312 1.35722,2.29984 5.0982,2.88438 10.19793,9.38051 12.36429,15.74987 1.87384,5.50932 2.42486,13.12413 1.31395,18.15796 -2.44861,11.09531 -9.87249,20.39079 -19.10186,23.91753 -1.99236,0.76132 -6.32761,1.82454 -9.33666,2.2898 l -1.2,0.18555 v -40.81671 -40.8167 l -1.0185,-0.2237 c -1.89929,-0.41716 -9.93388,-0.21792 -13.0615,0.32389 -6.24399,1.08167 -12.97435,3.84212 -18.75726,7.69327 -9.93761,6.61798 -16.2763,15.82243 -19.28268,28.00051 -1.21816,4.93447 -1.6419,8.33374 -1.63381,13.10678 0.018,10.60752 3.02937,20.69816 8.81005,29.52082 6.32176,9.64847 17.73024,17.13664 29.86366,19.60157 5.41909,1.1009 12.80988,1.21342 19.08004,0.29048 z m -21.64516,-18.69956 c -12.56415,-4.09745 -19.58844,-13.99218 -20.32091,-28.62492 -0.79894,-15.96075 6.55471,-27.92202 19.72607,-32.08594 1.144,-0.36166 2.476,-0.74502 2.96,-0.85191 l 0.88,-0.19434 -0.0429,21.3661 c -0.0236,11.75135 -0.1316,25.8496 -0.24,31.32944 L 184.8,199.28669 Z"/>
</svg>
